# xmcd
#
# Track frame offsets: 
#        150
#        18008
#        41764
#        66037
#        89726
#        119232
#        158388
#        181733
#        207827
#        227383
#
# Disc length: 3489 seconds
#
# Revision: 2
# Processed by: cddbd v1.5.2PL0 Copyright (c) Steve Scherf et al.
# Submitted via: ExactAudioCopyFreeDBPlugin 1.0
#
DISCID=780d9f0a
DTITLE=The JW-Jones Blues Band - Defibrillatin'
DYEAR=2000
DGENRE=Blues
TTITLE0=Too many Times
TTITLE1=Sittin' Here Waitin
TTITLE2=Defibrillatin'
TTITLE3=One Night Stand
TTITLE4=Batyology
TTITLE5=Waitin' Around
TTITLE6=Trying So Hard
TTITLE7=Dizzy Spell
TTITLE8=Dino Sammiches and Cornbread
TTITLE9=Studio Out-Takes
EXTD=
EXTT0=
EXTT1=
EXTT2=
EXTT3=
EXTT4=
EXTT5=
EXTT6=
EXTT7=
EXTT8=
EXTT9=
PLAYORDER=
